<mxfile host="65bd71144e" pages="2">
    <diagram id="SPNGPTWdjJnWWKBVjYqR" name="Page-1">
        <mxGraphModel dx="1010" dy="498" grid="1" gridSize="10" guides="1" tooltips="1" connect="1" arrows="1" fold="1" page="1" pageScale="1" pageWidth="850" pageHeight="1100" math="0" shadow="0">
            <root>
                <mxCell id="0"/>
                <mxCell id="1" parent="0"/>
                <mxCell id="fzue0QsRZSAmDLsMoaA4-1" value="Propietario" style="swimlane;fontStyle=1;align=center;verticalAlign=top;childLayout=stackLayout;horizontal=1;startSize=26;horizontalStack=0;resizeParent=1;resizeParentMax=0;resizeLast=0;collapsible=1;marginBottom=0;" parent="1" vertex="1">
                    <mxGeometry x="110" y="50" width="170" height="346" as="geometry"/>
                </mxCell>
                <mxCell id="fzue0QsRZSAmDLsMoaA4-2" value="+ nombre: string" style="text;strokeColor=none;fillColor=none;align=left;verticalAlign=top;spacingLeft=4;spacingRight=4;overflow=hidden;rotatable=0;points=[[0,0.5],[1,0.5]];portConstraint=eastwest;" parent="fzue0QsRZSAmDLsMoaA4-1" vertex="1">
                    <mxGeometry y="26" width="170" height="26" as="geometry"/>
                </mxCell>
                <mxCell id="fzue0QsRZSAmDLsMoaA4-5" value="+ email: string" style="text;strokeColor=none;fillColor=none;align=left;verticalAlign=top;spacingLeft=4;spacingRight=4;overflow=hidden;rotatable=0;points=[[0,0.5],[1,0.5]];portConstraint=eastwest;" parent="fzue0QsRZSAmDLsMoaA4-1" vertex="1">
                    <mxGeometry y="52" width="170" height="26" as="geometry"/>
                </mxCell>
                <mxCell id="fzue0QsRZSAmDLsMoaA4-6" value="+ id: int" style="text;strokeColor=none;fillColor=none;align=left;verticalAlign=top;spacingLeft=4;spacingRight=4;overflow=hidden;rotatable=0;points=[[0,0.5],[1,0.5]];portConstraint=eastwest;" parent="fzue0QsRZSAmDLsMoaA4-1" vertex="1">
                    <mxGeometry y="78" width="170" height="26" as="geometry"/>
                </mxCell>
                <mxCell id="fzue0QsRZSAmDLsMoaA4-7" value="+ telefono: int" style="text;strokeColor=none;fillColor=none;align=left;verticalAlign=top;spacingLeft=4;spacingRight=4;overflow=hidden;rotatable=0;points=[[0,0.5],[1,0.5]];portConstraint=eastwest;" parent="fzue0QsRZSAmDLsMoaA4-1" vertex="1">
                    <mxGeometry y="104" width="170" height="26" as="geometry"/>
                </mxCell>
                <mxCell id="fzue0QsRZSAmDLsMoaA4-3" value="" style="line;strokeWidth=1;fillColor=none;align=left;verticalAlign=middle;spacingTop=-1;spacingLeft=3;spacingRight=3;rotatable=0;labelPosition=right;points=[];portConstraint=eastwest;" parent="fzue0QsRZSAmDLsMoaA4-1" vertex="1">
                    <mxGeometry y="130" width="170" height="8" as="geometry"/>
                </mxCell>
                <mxCell id="fzue0QsRZSAmDLsMoaA4-12" value="+ setID(): void" style="text;strokeColor=none;fillColor=none;align=left;verticalAlign=top;spacingLeft=4;spacingRight=4;overflow=hidden;rotatable=0;points=[[0,0.5],[1,0.5]];portConstraint=eastwest;" parent="fzue0QsRZSAmDLsMoaA4-1" vertex="1">
                    <mxGeometry y="138" width="170" height="26" as="geometry"/>
                </mxCell>
                <mxCell id="fzue0QsRZSAmDLsMoaA4-9" value="+ getID(): int" style="text;strokeColor=none;fillColor=none;align=left;verticalAlign=top;spacingLeft=4;spacingRight=4;overflow=hidden;rotatable=0;points=[[0,0.5],[1,0.5]];portConstraint=eastwest;" parent="fzue0QsRZSAmDLsMoaA4-1" vertex="1">
                    <mxGeometry y="164" width="170" height="26" as="geometry"/>
                </mxCell>
                <mxCell id="fzue0QsRZSAmDLsMoaA4-10" value="+ setNombre(): void" style="text;strokeColor=none;fillColor=none;align=left;verticalAlign=top;spacingLeft=4;spacingRight=4;overflow=hidden;rotatable=0;points=[[0,0.5],[1,0.5]];portConstraint=eastwest;" parent="fzue0QsRZSAmDLsMoaA4-1" vertex="1">
                    <mxGeometry y="190" width="170" height="26" as="geometry"/>
                </mxCell>
                <mxCell id="fzue0QsRZSAmDLsMoaA4-13" value="+ getNombre(): string" style="text;strokeColor=none;fillColor=none;align=left;verticalAlign=top;spacingLeft=4;spacingRight=4;overflow=hidden;rotatable=0;points=[[0,0.5],[1,0.5]];portConstraint=eastwest;" parent="fzue0QsRZSAmDLsMoaA4-1" vertex="1">
                    <mxGeometry y="216" width="170" height="26" as="geometry"/>
                </mxCell>
                <mxCell id="fzue0QsRZSAmDLsMoaA4-14" value="+ setTelefono(): void" style="text;strokeColor=none;fillColor=none;align=left;verticalAlign=top;spacingLeft=4;spacingRight=4;overflow=hidden;rotatable=0;points=[[0,0.5],[1,0.5]];portConstraint=eastwest;" parent="fzue0QsRZSAmDLsMoaA4-1" vertex="1">
                    <mxGeometry y="242" width="170" height="26" as="geometry"/>
                </mxCell>
                <mxCell id="fzue0QsRZSAmDLsMoaA4-15" value="+ getTelefono(): int" style="text;strokeColor=none;fillColor=none;align=left;verticalAlign=top;spacingLeft=4;spacingRight=4;overflow=hidden;rotatable=0;points=[[0,0.5],[1,0.5]];portConstraint=eastwest;" parent="fzue0QsRZSAmDLsMoaA4-1" vertex="1">
                    <mxGeometry y="268" width="170" height="26" as="geometry"/>
                </mxCell>
                <mxCell id="fzue0QsRZSAmDLsMoaA4-16" value="+ setEmail(): void" style="text;strokeColor=none;fillColor=none;align=left;verticalAlign=top;spacingLeft=4;spacingRight=4;overflow=hidden;rotatable=0;points=[[0,0.5],[1,0.5]];portConstraint=eastwest;" parent="fzue0QsRZSAmDLsMoaA4-1" vertex="1">
                    <mxGeometry y="294" width="170" height="26" as="geometry"/>
                </mxCell>
                <mxCell id="fzue0QsRZSAmDLsMoaA4-17" value="+ getEmail(): string" style="text;strokeColor=none;fillColor=none;align=left;verticalAlign=top;spacingLeft=4;spacingRight=4;overflow=hidden;rotatable=0;points=[[0,0.5],[1,0.5]];portConstraint=eastwest;" parent="fzue0QsRZSAmDLsMoaA4-1" vertex="1">
                    <mxGeometry y="320" width="170" height="26" as="geometry"/>
                </mxCell>
                <mxCell id="fzue0QsRZSAmDLsMoaA4-18" value="Mascota" style="swimlane;fontStyle=1;align=center;verticalAlign=top;childLayout=stackLayout;horizontal=1;startSize=26;horizontalStack=0;resizeParent=1;resizeParentMax=0;resizeLast=0;collapsible=1;marginBottom=0;" parent="1" vertex="1">
                    <mxGeometry x="560" y="50" width="200" height="502" as="geometry"/>
                </mxCell>
                <mxCell id="fzue0QsRZSAmDLsMoaA4-19" value="+ nombre: string" style="text;strokeColor=none;fillColor=none;align=left;verticalAlign=top;spacingLeft=4;spacingRight=4;overflow=hidden;rotatable=0;points=[[0,0.5],[1,0.5]];portConstraint=eastwest;" parent="fzue0QsRZSAmDLsMoaA4-18" vertex="1">
                    <mxGeometry y="26" width="200" height="26" as="geometry"/>
                </mxCell>
                <mxCell id="fzue0QsRZSAmDLsMoaA4-20" value="+ raza: string" style="text;strokeColor=none;fillColor=none;align=left;verticalAlign=top;spacingLeft=4;spacingRight=4;overflow=hidden;rotatable=0;points=[[0,0.5],[1,0.5]];portConstraint=eastwest;" parent="fzue0QsRZSAmDLsMoaA4-18" vertex="1">
                    <mxGeometry y="52" width="200" height="26" as="geometry"/>
                </mxCell>
                <mxCell id="fzue0QsRZSAmDLsMoaA4-34" value="+ peso: float" style="text;strokeColor=none;fillColor=none;align=left;verticalAlign=top;spacingLeft=4;spacingRight=4;overflow=hidden;rotatable=0;points=[[0,0.5],[1,0.5]];portConstraint=eastwest;" parent="fzue0QsRZSAmDLsMoaA4-18" vertex="1">
                    <mxGeometry y="78" width="200" height="26" as="geometry"/>
                </mxCell>
                <mxCell id="fzue0QsRZSAmDLsMoaA4-35" value="+ edad: int" style="text;strokeColor=none;fillColor=none;align=left;verticalAlign=top;spacingLeft=4;spacingRight=4;overflow=hidden;rotatable=0;points=[[0,0.5],[1,0.5]];portConstraint=eastwest;" parent="fzue0QsRZSAmDLsMoaA4-18" vertex="1">
                    <mxGeometry y="104" width="200" height="26" as="geometry"/>
                </mxCell>
                <mxCell id="fzue0QsRZSAmDLsMoaA4-36" value="+ tipoSangre: string" style="text;strokeColor=none;fillColor=none;align=left;verticalAlign=top;spacingLeft=4;spacingRight=4;overflow=hidden;rotatable=0;points=[[0,0.5],[1,0.5]];portConstraint=eastwest;" parent="fzue0QsRZSAmDLsMoaA4-18" vertex="1">
                    <mxGeometry y="130" width="200" height="26" as="geometry"/>
                </mxCell>
                <mxCell id="fzue0QsRZSAmDLsMoaA4-21" value="+ idMascota: int" style="text;strokeColor=none;fillColor=none;align=left;verticalAlign=top;spacingLeft=4;spacingRight=4;overflow=hidden;rotatable=0;points=[[0,0.5],[1,0.5]];portConstraint=eastwest;" parent="fzue0QsRZSAmDLsMoaA4-18" vertex="1">
                    <mxGeometry y="156" width="200" height="26" as="geometry"/>
                </mxCell>
                <mxCell id="fzue0QsRZSAmDLsMoaA4-22" value="+ status: bool" style="text;strokeColor=none;fillColor=none;align=left;verticalAlign=top;spacingLeft=4;spacingRight=4;overflow=hidden;rotatable=0;points=[[0,0.5],[1,0.5]];portConstraint=eastwest;" parent="fzue0QsRZSAmDLsMoaA4-18" vertex="1">
                    <mxGeometry y="182" width="200" height="26" as="geometry"/>
                </mxCell>
                <mxCell id="fzue0QsRZSAmDLsMoaA4-33" value="+ fechaDefuncion: string" style="text;strokeColor=none;fillColor=none;align=left;verticalAlign=top;spacingLeft=4;spacingRight=4;overflow=hidden;rotatable=0;points=[[0,0.5],[1,0.5]];portConstraint=eastwest;" parent="fzue0QsRZSAmDLsMoaA4-18" vertex="1">
                    <mxGeometry y="208" width="200" height="26" as="geometry"/>
                </mxCell>
                <mxCell id="fzue0QsRZSAmDLsMoaA4-24" value="" style="line;strokeWidth=1;fillColor=none;align=left;verticalAlign=middle;spacingTop=-1;spacingLeft=3;spacingRight=3;rotatable=0;labelPosition=right;points=[];portConstraint=eastwest;" parent="fzue0QsRZSAmDLsMoaA4-18" vertex="1">
                    <mxGeometry y="234" width="200" height="8" as="geometry"/>
                </mxCell>
                <mxCell id="fzue0QsRZSAmDLsMoaA4-25" value="+ setIdMascota(): void" style="text;strokeColor=none;fillColor=none;align=left;verticalAlign=top;spacingLeft=4;spacingRight=4;overflow=hidden;rotatable=0;points=[[0,0.5],[1,0.5]];portConstraint=eastwest;" parent="fzue0QsRZSAmDLsMoaA4-18" vertex="1">
                    <mxGeometry y="242" width="200" height="26" as="geometry"/>
                </mxCell>
                <mxCell id="fzue0QsRZSAmDLsMoaA4-26" value="+ getIdMascota(): int" style="text;strokeColor=none;fillColor=none;align=left;verticalAlign=top;spacingLeft=4;spacingRight=4;overflow=hidden;rotatable=0;points=[[0,0.5],[1,0.5]];portConstraint=eastwest;" parent="fzue0QsRZSAmDLsMoaA4-18" vertex="1">
                    <mxGeometry y="268" width="200" height="26" as="geometry"/>
                </mxCell>
                <mxCell id="fzue0QsRZSAmDLsMoaA4-27" value="+ setNombre(): void" style="text;strokeColor=none;fillColor=none;align=left;verticalAlign=top;spacingLeft=4;spacingRight=4;overflow=hidden;rotatable=0;points=[[0,0.5],[1,0.5]];portConstraint=eastwest;" parent="fzue0QsRZSAmDLsMoaA4-18" vertex="1">
                    <mxGeometry y="294" width="200" height="26" as="geometry"/>
                </mxCell>
                <mxCell id="fzue0QsRZSAmDLsMoaA4-28" value="+ getNombre(): string" style="text;strokeColor=none;fillColor=none;align=left;verticalAlign=top;spacingLeft=4;spacingRight=4;overflow=hidden;rotatable=0;points=[[0,0.5],[1,0.5]];portConstraint=eastwest;" parent="fzue0QsRZSAmDLsMoaA4-18" vertex="1">
                    <mxGeometry y="320" width="200" height="26" as="geometry"/>
                </mxCell>
                <mxCell id="fzue0QsRZSAmDLsMoaA4-29" value="+ setRaza(): void" style="text;strokeColor=none;fillColor=none;align=left;verticalAlign=top;spacingLeft=4;spacingRight=4;overflow=hidden;rotatable=0;points=[[0,0.5],[1,0.5]];portConstraint=eastwest;" parent="fzue0QsRZSAmDLsMoaA4-18" vertex="1">
                    <mxGeometry y="346" width="200" height="26" as="geometry"/>
                </mxCell>
                <mxCell id="fzue0QsRZSAmDLsMoaA4-30" value="+ getRaza(): string" style="text;strokeColor=none;fillColor=none;align=left;verticalAlign=top;spacingLeft=4;spacingRight=4;overflow=hidden;rotatable=0;points=[[0,0.5],[1,0.5]];portConstraint=eastwest;" parent="fzue0QsRZSAmDLsMoaA4-18" vertex="1">
                    <mxGeometry y="372" width="200" height="26" as="geometry"/>
                </mxCell>
                <mxCell id="fzue0QsRZSAmDLsMoaA4-31" value="+ setTipoSangre(): void" style="text;strokeColor=none;fillColor=none;align=left;verticalAlign=top;spacingLeft=4;spacingRight=4;overflow=hidden;rotatable=0;points=[[0,0.5],[1,0.5]];portConstraint=eastwest;" parent="fzue0QsRZSAmDLsMoaA4-18" vertex="1">
                    <mxGeometry y="398" width="200" height="26" as="geometry"/>
                </mxCell>
                <mxCell id="fzue0QsRZSAmDLsMoaA4-32" value="+ getTipoSangre(): string" style="text;strokeColor=none;fillColor=none;align=left;verticalAlign=top;spacingLeft=4;spacingRight=4;overflow=hidden;rotatable=0;points=[[0,0.5],[1,0.5]];portConstraint=eastwest;" parent="fzue0QsRZSAmDLsMoaA4-18" vertex="1">
                    <mxGeometry y="424" width="200" height="26" as="geometry"/>
                </mxCell>
                <mxCell id="fzue0QsRZSAmDLsMoaA4-38" value="+ setStatus(): void" style="text;strokeColor=none;fillColor=none;align=left;verticalAlign=top;spacingLeft=4;spacingRight=4;overflow=hidden;rotatable=0;points=[[0,0.5],[1,0.5]];portConstraint=eastwest;" parent="fzue0QsRZSAmDLsMoaA4-18" vertex="1">
                    <mxGeometry y="450" width="200" height="26" as="geometry"/>
                </mxCell>
                <mxCell id="fzue0QsRZSAmDLsMoaA4-39" value="+ getStatus(): bool" style="text;strokeColor=none;fillColor=none;align=left;verticalAlign=top;spacingLeft=4;spacingRight=4;overflow=hidden;rotatable=0;points=[[0,0.5],[1,0.5]];portConstraint=eastwest;" parent="fzue0QsRZSAmDLsMoaA4-18" vertex="1">
                    <mxGeometry y="476" width="200" height="26" as="geometry"/>
                </mxCell>
                <mxCell id="fzue0QsRZSAmDLsMoaA4-40" value="PropietarioXMascota" style="swimlane;fontStyle=1;align=center;verticalAlign=top;childLayout=stackLayout;horizontal=1;startSize=26;horizontalStack=0;resizeParent=1;resizeParentMax=0;resizeLast=0;collapsible=1;marginBottom=0;" parent="1" vertex="1">
                    <mxGeometry x="160" y="490" width="310" height="138" as="geometry"/>
                </mxCell>
                <mxCell id="fzue0QsRZSAmDLsMoaA4-41" value="+ propietario: vector&lt;Propietario&gt;" style="text;strokeColor=none;fillColor=none;align=left;verticalAlign=top;spacingLeft=4;spacingRight=4;overflow=hidden;rotatable=0;points=[[0,0.5],[1,0.5]];portConstraint=eastwest;" parent="fzue0QsRZSAmDLsMoaA4-40" vertex="1">
                    <mxGeometry y="26" width="310" height="26" as="geometry"/>
                </mxCell>
                <mxCell id="fzue0QsRZSAmDLsMoaA4-44" value="+ mascota: vector&lt;Mascota&gt;" style="text;strokeColor=none;fillColor=none;align=left;verticalAlign=top;spacingLeft=4;spacingRight=4;overflow=hidden;rotatable=0;points=[[0,0.5],[1,0.5]];portConstraint=eastwest;" parent="fzue0QsRZSAmDLsMoaA4-40" vertex="1">
                    <mxGeometry y="52" width="310" height="26" as="geometry"/>
                </mxCell>
                <mxCell id="fzue0QsRZSAmDLsMoaA4-42" value="" style="line;strokeWidth=1;fillColor=none;align=left;verticalAlign=middle;spacingTop=-1;spacingLeft=3;spacingRight=3;rotatable=0;labelPosition=right;points=[];portConstraint=eastwest;" parent="fzue0QsRZSAmDLsMoaA4-40" vertex="1">
                    <mxGeometry y="78" width="310" height="8" as="geometry"/>
                </mxCell>
                <mxCell id="fzue0QsRZSAmDLsMoaA4-43" value="+ inicializarPropietario()" style="text;strokeColor=none;fillColor=none;align=left;verticalAlign=top;spacingLeft=4;spacingRight=4;overflow=hidden;rotatable=0;points=[[0,0.5],[1,0.5]];portConstraint=eastwest;" parent="fzue0QsRZSAmDLsMoaA4-40" vertex="1">
                    <mxGeometry y="86" width="310" height="26" as="geometry"/>
                </mxCell>
                <mxCell id="fzue0QsRZSAmDLsMoaA4-45" value="+ inicializarMascota()" style="text;strokeColor=none;fillColor=none;align=left;verticalAlign=top;spacingLeft=4;spacingRight=4;overflow=hidden;rotatable=0;points=[[0,0.5],[1,0.5]];portConstraint=eastwest;" parent="fzue0QsRZSAmDLsMoaA4-40" vertex="1">
                    <mxGeometry y="112" width="310" height="26" as="geometry"/>
                </mxCell>
                <mxCell id="fzue0QsRZSAmDLsMoaA4-46" value="" style="endArrow=block;endFill=1;html=1;align=left;verticalAlign=top;rounded=0;exitX=-0.001;exitY=-0.16;exitDx=0;exitDy=0;exitPerimeter=0;entryX=-0.014;entryY=1.317;entryDx=0;entryDy=0;entryPerimeter=0;edgeStyle=elbowEdgeStyle;" parent="1" source="fzue0QsRZSAmDLsMoaA4-43" target="fzue0QsRZSAmDLsMoaA4-7" edge="1">
                    <mxGeometry x="-1" relative="1" as="geometry">
                        <mxPoint x="130" y="600" as="sourcePoint"/>
                        <mxPoint x="70" y="330" as="targetPoint"/>
                        <Array as="points">
                            <mxPoint x="50" y="410"/>
                        </Array>
                    </mxGeometry>
                </mxCell>
                <mxCell id="fzue0QsRZSAmDLsMoaA4-48" value="" style="endArrow=block;endFill=1;html=1;align=left;verticalAlign=top;rounded=0;exitX=1.001;exitY=0.679;exitDx=0;exitDy=0;exitPerimeter=0;entryX=0.005;entryY=-0.758;entryDx=0;entryDy=0;entryPerimeter=0;edgeStyle=elbowEdgeStyle;" parent="1" source="fzue0QsRZSAmDLsMoaA4-42" target="fzue0QsRZSAmDLsMoaA4-24" edge="1">
                    <mxGeometry x="-1" relative="1" as="geometry">
                        <mxPoint x="489.69000000000005" y="573.5999999999999" as="sourcePoint"/>
                        <mxPoint x="397.6199999999999" y="170.00199999999995" as="targetPoint"/>
                        <Array as="points">
                            <mxPoint x="540" y="390"/>
                        </Array>
                    </mxGeometry>
                </mxCell>
                <mxCell id="fzue0QsRZSAmDLsMoaA4-49" value="Veterinaria" style="swimlane;fontStyle=1;align=center;verticalAlign=top;childLayout=stackLayout;horizontal=1;startSize=26;horizontalStack=0;resizeParent=1;resizeParentMax=0;resizeLast=0;collapsible=1;marginBottom=0;" parent="1" vertex="1">
                    <mxGeometry x="330" y="770" width="160" height="86" as="geometry"/>
                </mxCell>
                <mxCell id="fzue0QsRZSAmDLsMoaA4-50" value="+ field: type" style="text;strokeColor=none;fillColor=none;align=left;verticalAlign=top;spacingLeft=4;spacingRight=4;overflow=hidden;rotatable=0;points=[[0,0.5],[1,0.5]];portConstraint=eastwest;" parent="fzue0QsRZSAmDLsMoaA4-49" vertex="1">
                    <mxGeometry y="26" width="160" height="26" as="geometry"/>
                </mxCell>
                <mxCell id="fzue0QsRZSAmDLsMoaA4-51" value="" style="line;strokeWidth=1;fillColor=none;align=left;verticalAlign=middle;spacingTop=-1;spacingLeft=3;spacingRight=3;rotatable=0;labelPosition=right;points=[];portConstraint=eastwest;" parent="fzue0QsRZSAmDLsMoaA4-49" vertex="1">
                    <mxGeometry y="52" width="160" height="8" as="geometry"/>
                </mxCell>
                <mxCell id="fzue0QsRZSAmDLsMoaA4-52" value="+ method(type): type" style="text;strokeColor=none;fillColor=none;align=left;verticalAlign=top;spacingLeft=4;spacingRight=4;overflow=hidden;rotatable=0;points=[[0,0.5],[1,0.5]];portConstraint=eastwest;" parent="fzue0QsRZSAmDLsMoaA4-49" vertex="1">
                    <mxGeometry y="60" width="160" height="26" as="geometry"/>
                </mxCell>
            </root>
        </mxGraphModel>
    </diagram>
    <diagram id="RFdknM2md10D-yRL-uof" name="Page-2">
        <mxGraphModel dx="1022" dy="460" grid="1" gridSize="10" guides="1" tooltips="1" connect="1" arrows="1" fold="1" page="1" pageScale="1" pageWidth="850" pageHeight="1100" math="0" shadow="0">
            <root>
                <mxCell id="oJjcaHzjgaTvupKTP0z1-0"/>
                <mxCell id="oJjcaHzjgaTvupKTP0z1-1" parent="oJjcaHzjgaTvupKTP0z1-0"/>
            </root>
        </mxGraphModel>
    </diagram>
</mxfile>